<svg xmlns:dc="http://purl.org/dc/elements/1.1/" xmlns:cc="http://creativecommons.org/ns#" xmlns:rdf="http://www.w3.org/1999/02/22-rdf-syntax-ns#" xmlns:svg="http://www.w3.org/2000/svg" xmlns="http://www.w3.org/2000/svg" xmlns:sodipodi="http://sodipodi.sourceforge.net/DTD/sodipodi-0.dtd" xmlns:inkscape="http://www.inkscape.org/namespaces/inkscape" viewBox="0 0 12.7 15.875" version="1.1" x="0px" y="0px"><g transform="translate(0,-284.29999)"><path d="m 6.3500097,285.35806 c -2.9193798,0 -5.2911597,2.37178 -5.2911597,5.29115 0,2.91937 2.3717799,5.2927 5.2911597,5.2927 2.9193599,0 5.2911403,-2.37333 5.2911403,-5.2927 0,-2.91937 -2.3717804,-5.29115 -5.2911403,-5.29115 z m 0,0.52916 c 2.6333699,0 4.7619693,2.1286 4.7619693,4.76199 0,2.63339 -2.1285994,4.76353 -4.7619693,4.76353 -2.6333997,0 -4.7635297,-2.13014 -4.7635297,-4.76353 0,-2.63339 2.13013,-4.76199 4.7635297,-4.76199 z M 4.49068,288.00648 a 0.26484175,0.26484175 0 1 0 0,0.52968 h 3.7031297 a 0.26484175,0.26484175 0 1 0 0,-0.52968 z m 1.8495198,1.05885 a 0.26460979,0.26460979 0 0 0 -0.1834701,0.078 l -1.8536099,1.85156 a 0.26528559,0.26528559 0 1 0 0.37515,0.37517 l 1.4004399,-1.40043 v 3.06442 a 0.264648,0.264648 0 0 0 0.5291701,0 v -3.06648 l 1.4004398,1.40043 a 0.26460979,0.26460979 0 1 0 0.37308,-0.37311 l -1.8494899,-1.85156 a 0.26460979,0.26460979 0 0 0 -0.1917099,-0.078 z" style="color:#000000;font-style:normal;font-variant:normal;font-weight:normal;font-stretch:normal;font-size:medium;line-height:normal;font-family:sans-serif;font-variant-ligatures:normal;font-variant-position:normal;font-variant-caps:normal;font-variant-numeric:normal;font-variant-alternates:normal;font-feature-settings:normal;text-indent:0;text-align:start;text-decoration:none;text-decoration-line:none;text-decoration-style:solid;text-decoration-color:#000000;letter-spacing:normal;word-spacing:normal;text-transform:none;writing-mode:lr-tb;direction:ltr;text-orientation:mixed;dominant-baseline:auto;baseline-shift:baseline;text-anchor:start;white-space:normal;shape-padding:0;clip-rule:nonzero;display:inline;overflow:visible;visibility:visible;opacity:1;isolation:auto;mix-blend-mode:normal;color-interpolation:sRGB;color-interpolation-filters:linearRGB;solid-color:#000000;solid-opacity:1;vector-effect:none;fill:#000000;fill-opacity:1;fill-rule:nonzero;stroke:none;stroke-width:0.52916664;stroke-linecap:butt;stroke-linejoin:round;stroke-miterlimit:4;stroke-dasharray:none;stroke-dashoffset:0;stroke-opacity:1;color-rendering:auto;image-rendering:auto;shape-rendering:auto;text-rendering:auto;enable-background:accumulate"/></g><text x="0" y="27.7" fill="#000000" font-size="5px" font-weight="bold" font-family="'Helvetica Neue', Helvetica, Arial-Unicode, Arial, Sans-serif">Created by Nawicon Studio</text><text x="0" y="32.7" fill="#000000" font-size="5px" font-weight="bold" font-family="'Helvetica Neue', Helvetica, Arial-Unicode, Arial, Sans-serif">from the Noun Project</text></svg>