<svg xmlns="http://www.w3.org/2000/svg" xmlns:xlink="http://www.w3.org/1999/xlink" version="1.1" x="0px" y="0px" viewBox="0 0 100 125" style="enable-background:new 0 0 100 100;" xml:space="preserve"><style type="text/css">
	.st0{fill:none;stroke:#000000;stroke-width:2;stroke-linecap:round;stroke-linejoin:round;stroke-miterlimit:10;}
</style><path d="M89.251,82.964h-3.846V55h1.39c0.552,0,1-0.447,1-1v-6.417c0-0.553-0.448-1-1-1h-1.39V17.011h1.353c0.552,0,1-0.447,1-1V11  c0-0.553-0.448-1-1-1h-49.75c-0.552,0-1,0.447-1,1v5.011c0,0.553,0.448,1,1,1h1.354V38.95c-1.483-2.374-4.235-3.956-7.371-3.956  c-4.705,0-8.533,3.582-8.533,7.984c0,0.946,0.178,1.872,0.53,2.759c-0.28,0.351-0.526,0.72-0.749,1.101  c-0.881-0.38-1.843-0.59-2.818-0.59c-3.722,0-6.75,2.841-6.75,6.332c0,0.707,0.125,1.399,0.373,2.065  c-0.958,1.247-1.48,2.749-1.48,4.293c0,0.873,0.164,1.725,0.488,2.54c-1.1,1.435-1.699,3.166-1.699,4.941  c0,4.368,3.549,7.973,8.091,8.43l0.024,8.114h-7.216c-0.552,0-1,0.447-1,1V89c0,0.553,0.448,1,1,1h78c0.552,0,1-0.447,1-1v-5.036  C90.251,83.411,89.803,82.964,89.251,82.964z M83.405,82.964h-13.82V65.695c0-3.927-3.194-7.121-7.121-7.121  s-7.121,3.194-7.121,7.121v17.269H40.362v-15.43c0-0.033-0.016-0.06-0.019-0.092c1.388-1.781,2.217-3.966,2.217-6.333  c0-2.159-0.681-4.244-1.97-6.028c-0.02-0.027-0.041-0.054-0.061-0.081h42.876V82.964z M67.585,82.964H57.344V65.695  c0-2.824,2.297-5.121,5.121-5.121s5.121,2.297,5.121,5.121V82.964z M32.052,82.964l-0.035-11.102  c2.398-0.198,4.59-1.076,6.345-2.434v13.536H32.052z M84.231,48.583l-2.459,3.258l-2.459-3.258H84.231z M80.141,53h-4.616  l2.307-3.059L80.141,53z M73.896,51.839l-2.455-3.256h4.911L73.896,51.839z M72.266,53h-4.609l2.304-3.058L72.266,53z   M66.028,51.839l-2.455-3.256h4.908L66.028,51.839z M64.399,53h-4.61l2.305-3.058L64.399,53z M58.16,51.839l-2.455-3.256h4.909  L58.16,51.839z M56.531,53h-4.609l2.304-3.058L56.531,53z M50.293,51.838l-2.451-3.255h4.904L50.293,51.838z M48.665,53h-4.606  l2.304-3.057L48.665,53z M42.402,51.876l-1.536-1.896c-0.073-0.474-0.187-0.94-0.336-1.396h4.354L42.402,51.876z M83.402,53  l2.393-3.169V53H83.402z M38.008,12h47.75v3.011h-47.75V12z M83.405,17.011v29.572H40.362V17.011H83.405z M30.991,36.994  c3.489,0,6.354,2.498,6.525,5.688c0.005,0.098,0.008,0.197,0.008,0.296c0,0.856-0.2,1.691-0.596,2.481  c-0.186,0.371-0.123,0.819,0.159,1.124c1.217,1.323,1.888,3.001,1.888,4.725c0,1.064-0.252,2.103-0.75,3.083  c-0.187,0.368-0.128,0.813,0.148,1.121c0.213,0.236,0.412,0.483,0.597,0.74c1.041,1.44,1.591,3.12,1.591,4.856  c0,4.536-3.751,8.28-8.55,8.749l-0.015-4.552l3.365-3.365c0.391-0.391,0.391-1.023,0-1.414s-1.023-0.391-1.414,0l-1.96,1.96  l-0.012-3.783c-0.002-0.552-0.449-0.997-1-0.997c-0.001,0-0.002,0-0.003,0c-0.552,0.002-0.999,0.451-0.997,1.003l0.012,3.64  l-1.823-1.823c-0.391-0.391-1.023-0.391-1.414,0s-0.391,1.023,0,1.414l3.246,3.246l0.015,4.677  c-4.818-0.453-8.589-4.207-8.589-8.755c0-2.037,0.777-4.025,2.188-5.598c0.276-0.308,0.334-0.752,0.148-1.12  c-0.498-0.981-0.75-2.019-0.75-3.083c0-1.724,0.67-3.401,1.888-4.725c0.281-0.305,0.344-0.752,0.159-1.124  c-0.395-0.791-0.596-1.626-0.596-2.481C24.458,39.679,27.389,36.994,30.991,36.994z M12.352,66.42c0-1.497,0.572-2.959,1.61-4.115  c0.276-0.307,0.334-0.753,0.147-1.121c-0.363-0.714-0.547-1.47-0.547-2.245c0-1.257,0.49-2.48,1.378-3.446  c0.281-0.305,0.344-0.752,0.159-1.123c-0.285-0.571-0.43-1.174-0.43-1.789c0-2.389,2.131-4.332,4.75-4.332  c0.696,0,1.38,0.147,2.007,0.415c-0.271,0.854-0.42,1.743-0.42,2.646c0,1.161,0.229,2.294,0.684,3.377  c-1.468,1.853-2.27,4.109-2.27,6.424c0,3.917,2.253,7.344,5.605,9.238c-1.128,1.353-2.77,2.239-4.589,2.481l-0.012-4.088  c-0.001-0.552-0.449-0.997-1-0.997c-0.001,0-0.002,0-0.003,0c-0.552,0.002-0.999,0.451-0.997,1.003l0.012,4.086  C15.005,72.39,12.352,69.688,12.352,66.42z M20.443,74.843c2.603-0.276,4.967-1.59,6.466-3.639c0.981,0.347,2.021,0.576,3.107,0.661  l0.035,11.1h-9.584L20.443,74.843z M88.251,88h-76v-3.036h76V88z"/><path d="M74.112,42.105h5.014c0.552,0,1-0.447,1-1v-6.754c0-0.553-0.448-1-1-1h-5.014c-0.552,0-1,0.447-1,1v6.754  C73.112,41.658,73.56,42.105,74.112,42.105z M75.112,35.352h3.014v4.754h-3.014V35.352z"/><path d="M59.958,42.105h5.014c0.552,0,1-0.447,1-1v-6.754c0-0.553-0.448-1-1-1h-5.014c-0.552,0-1,0.447-1,1v6.754  C58.958,41.658,59.405,42.105,59.958,42.105z M60.958,35.352h3.014v4.754h-3.014V35.352z"/><path d="M45.237,42.105h5.014c0.552,0,1-0.447,1-1v-6.754c0-0.553-0.448-1-1-1h-5.014c-0.552,0-1,0.447-1,1v6.754  C44.237,41.658,44.685,42.105,45.237,42.105z M46.237,35.352h3.014v4.754h-3.014V35.352z"/><path d="M45.237,79.811h5.014c0.552,0,1-0.447,1-1v-6.754c0-0.553-0.448-1-1-1h-5.014c-0.552,0-1,0.447-1,1v6.754  C44.237,79.363,44.685,79.811,45.237,79.811z M46.237,73.057h3.014v4.754h-3.014V73.057z"/><path d="M74.112,79.811h5.014c0.552,0,1-0.447,1-1v-6.754c0-0.553-0.448-1-1-1h-5.014c-0.552,0-1,0.447-1,1v6.754  C73.112,79.363,73.56,79.811,74.112,79.811z M75.112,73.057h3.014v4.754h-3.014V73.057z"/><path d="M45.237,66.91h5.014c0.552,0,1-0.447,1-1v-6.753c0-0.553-0.448-1-1-1h-5.014c-0.552,0-1,0.447-1,1v6.753  C44.237,66.463,44.685,66.91,45.237,66.91z M46.237,60.157h3.014v4.753h-3.014V60.157z"/><path d="M74.112,66.91h5.014c0.552,0,1-0.447,1-1v-6.753c0-0.553-0.448-1-1-1h-5.014c-0.552,0-1,0.447-1,1v6.753  C73.112,66.463,73.56,66.91,74.112,66.91z M75.112,60.157h3.014v4.753h-3.014V60.157z"/><path d="M74.112,29.809h5.014c0.552,0,1-0.447,1-1v-6.754c0-0.553-0.448-1-1-1h-5.014c-0.552,0-1,0.447-1,1v6.754  C73.112,29.361,73.56,29.809,74.112,29.809z M75.112,23.055h3.014v4.754h-3.014V23.055z"/><path d="M59.958,29.809h5.014c0.552,0,1-0.447,1-1v-6.754c0-0.553-0.448-1-1-1h-5.014c-0.552,0-1,0.447-1,1v6.754  C58.958,29.361,59.405,29.809,59.958,29.809z M60.958,23.055h3.014v4.754h-3.014V23.055z"/><path d="M45.237,29.809h5.014c0.552,0,1-0.447,1-1v-6.754c0-0.553-0.448-1-1-1h-5.014c-0.552,0-1,0.447-1,1v6.754  C44.237,29.361,44.685,29.809,45.237,29.809z M46.237,23.055h3.014v4.754h-3.014V23.055z"/><text x="0" y="115" fill="#000000" font-size="5px" font-weight="bold" font-family="'Helvetica Neue', Helvetica, Arial-Unicode, Arial, Sans-serif">Created by Made</text><text x="0" y="120" fill="#000000" font-size="5px" font-weight="bold" font-family="'Helvetica Neue', Helvetica, Arial-Unicode, Arial, Sans-serif">from the Noun Project</text></svg>