<svg xmlns="http://www.w3.org/2000/svg" xmlns:xlink="http://www.w3.org/1999/xlink" version="1.1" x="0px" y="0px" viewBox="0 0 100 125" style="enable-background:new 0 0 100 100;" xml:space="preserve"><path d="M28.984375,20.8369141h17.8261719c2.1757812,0,3.9462891-1.7695312,3.9462891-3.9453125  s-1.7705078-3.9462891-3.9462891-3.9462891h-9.5419922c-1.0722656,0-1.9453125-0.8730469-1.9453125-1.9453125  c0-0.5527344-0.4472656-1-1-1s-1,0.4472656-1,1c0,2.1757812,1.7695312,3.9453125,3.9453125,3.9453125h9.5419922  c1.0732422,0,1.9462891,0.8730469,1.9462891,1.9462891c0,1.0722656-0.8730469,1.9453125-1.9462891,1.9453125H28.984375  c-2.1347656,0-3.8710938,1.7363281-3.8710938,3.8710938c0,2.1337891,1.7363281,3.8701172,3.8710938,3.8701172h7.5800781  c1.5322266,0,2.7783203,1.2460938,2.7783203,2.7783203v0.4697266c0,0.5527344,0.4472656,1,1,1s1-0.4472656,1-1v-0.4697266  c0-2.6347656-2.1435547-4.7783203-4.7783203-4.7783203H28.984375c-1.03125,0-1.8710938-0.8388672-1.8710938-1.8701172  S27.953125,20.8369141,28.984375,20.8369141z"/><path d="M47.5625,30.8261719c0.5527344,0,1-0.4472656,1-1v-0.6455078c0-2.3125,1.8808594-4.1943359,4.1933594-4.1943359h10.421875  c2.7275391,0,4.9472656-2.2197266,4.9472656-4.9472656s-2.2197266-4.9472656-4.9472656-4.9472656c-0.5527344,0-1,0.4472656-1,1  s0.4472656,1,1,1c1.625,0,2.9472656,1.3222656,2.9472656,2.9472656s-1.3222656,2.9472656-2.9472656,2.9472656h-10.421875  c-3.4150391,0-6.1933594,2.7783203-6.1933594,6.1943359v0.6455078C46.5625,30.3789062,47.0097656,30.8261719,47.5625,30.8261719z"/><path d="M80.203125,44.2578125h-2.355957c0.0681763-1.1082764,0.1049805-2.2266235,0.1049805-3.3544922v-4.9931641  c0-0.5527344-0.4472656-1-1-1h-66c-0.5527344,0-1,0.4472656-1,1v4.9931641c0,17.024353,7.8859863,32.0206909,20.0163574,38.8466797  H10.9521484c-0.5527344,0-1,0.4472656-1,1v1.4423828C9.9521484,86.4970703,13.4550781,90,17.7597656,90h52.3847656  c4.3046875,0,7.8076172-3.5029297,7.8076172-7.8076172V80.75c0-0.5527344-0.4472656-1-1-1h-19.015625  c6.1394653-3.4549561,11.1889648-9.0039062,14.6812744-15.8496094h7.5853271c5.4150391,0,9.8203125-4.40625,9.8203125-9.8212891  S85.6181641,44.2578125,80.203125,44.2578125z M75.9521484,82.1923828C75.9521484,85.3945312,73.3466797,88,70.1445312,88  H17.7597656c-3.2021484,0-5.8076172-2.6054688-5.8076172-5.8076172V81.75h22.5119629  c0.0023193-0.000061,0.0045166,0.0001221,0.0068359,0h41.4812012V82.1923828z M53.274353,79.75H34.6308594  c-13.3613892-5.2042847-22.6787109-21.1450195-22.6787109-38.8466797v-3.9931641h64v3.9931641  C75.9521484,58.6049805,66.6348267,74.5457153,53.274353,79.75z M80.203125,61.9003906h-6.6242676  c2.1363525-4.7470093,3.553894-10.0401001,4.1084595-15.6425781h2.5158081c4.3125,0,7.8203125,3.5087891,7.8203125,7.8212891  S84.515625,61.9003906,80.203125,61.9003906z"/><text x="0" y="115" fill="#000000" font-size="5px" font-weight="bold" font-family="'Helvetica Neue', Helvetica, Arial-Unicode, Arial, Sans-serif">Created by Made</text><text x="0" y="120" fill="#000000" font-size="5px" font-weight="bold" font-family="'Helvetica Neue', Helvetica, Arial-Unicode, Arial, Sans-serif">from the Noun Project</text></svg>