<svg xmlns:dc="http://purl.org/dc/elements/1.1/" xmlns:cc="http://creativecommons.org/ns#" xmlns:rdf="http://www.w3.org/1999/02/22-rdf-syntax-ns#" xmlns:svg="http://www.w3.org/2000/svg" xmlns="http://www.w3.org/2000/svg" xmlns:sodipodi="http://sodipodi.sourceforge.net/DTD/sodipodi-0.dtd" xmlns:inkscape="http://www.inkscape.org/namespaces/inkscape" version="1.1" x="0px" y="0px" viewBox="0 0 100 125"><g transform="translate(0,-952.36218)"><path style="font-size:medium;font-style:normal;font-variant:normal;font-weight:normal;font-stretch:normal;text-indent:0;text-align:start;text-decoration:none;line-height:normal;letter-spacing:normal;word-spacing:normal;text-transform:none;direction:ltr;block-progression:tb;writing-mode:lr-tb;text-anchor:start;baseline-shift:baseline;opacity:1;color:#000000;fill:#000000;fill-opacity:1;stroke:none;stroke-width:3.99999927999999990;marker:none;visibility:visible;display:inline;overflow:visible;enable-background:accumulate;font-family:Sans;-inkscape-font-specification:Sans" d="M 50 6 C 25.72316 6 6 25.72314 6 50 C 6 74.2768 25.72316 94 50 94 C 74.27684 94 94 74.2768 94 50 C 94 25.72314 74.27684 6 50 6 z M 50 10 C 72.115078 10 90 27.8849 90 50 C 90 72.1151 72.115078 90 50 90 C 27.884922 90 10 72.1151 10 50 C 10 27.8849 27.884922 10 50 10 z M 56 21 C 52.232881 21 48.522065 22.10949 45.6875 24.46875 C 42.852935 26.82801 41 30.49274 41 35 L 41 42 L 36 42 A 2.0001996 2.0001996 0 0 0 34 44 L 34 54.09375 A 2.0001996 2.0001996 0 0 0 36.03125 56.09375 L 41 56.03125 L 41 81 A 2.0001996 2.0001996 0 0 0 43 83 L 53 83 A 2.0001996 2.0001996 0 0 0 55 81 L 55 56 L 63 56 A 2.0001996 2.0001996 0 0 0 65 54 L 65 44 A 2.0001996 2.0001996 0 0 0 63 42 L 55 42 L 55 35 L 63 35 A 2.0001996 2.0001996 0 0 0 65 33 L 65 23 A 2.0001996 2.0001996 0 0 0 63 21 L 56 21 z M 56 25 L 61 25 L 61 31 L 53 31 A 2.0001996 2.0001996 0 0 0 51 33 L 51 44 A 2.0001996 2.0001996 0 0 0 53 46 L 61 46 L 61 52 L 53 52 A 2.0001996 2.0001996 0 0 0 51 54 L 51 79 L 45 79 L 45 54 A 2.0001996 2.0001996 0 0 0 42.96875 52 L 38 52.0625 L 38 46 L 43 46 A 2.0001996 2.0001996 0 0 0 45 44 L 45 35 C 45 31.54125 46.268492 29.18049 48.25 27.53125 C 50.231508 25.88201 53.031409 25 56 25 z " transform="translate(0,952.36218)"/></g><text x="0" y="115" fill="#000000" font-size="5px" font-weight="bold" font-family="'Helvetica Neue', Helvetica, Arial-Unicode, Arial, Sans-serif">Created by rivda</text><text x="0" y="120" fill="#000000" font-size="5px" font-weight="bold" font-family="'Helvetica Neue', Helvetica, Arial-Unicode, Arial, Sans-serif">from the Noun Project</text></svg>