<?xml version="1.0" encoding="utf-8"?>
<!-- Generator: Adobe Illustrator 23.0.1, SVG Export Plug-In . SVG Version: 6.00 Build 0)  -->
<svg version="1.1" id="Layer_1" xmlns="http://www.w3.org/2000/svg" xmlns:xlink="http://www.w3.org/1999/xlink" x="0px" y="0px"
	 viewBox="0 0 600 600" style="enable-background:new 0 0 600 600;" xml:space="preserve">
<style type="text/css">
	.st0{fill:#FFD227;stroke:#D59B35;stroke-width:10.4102;stroke-miterlimit:10;}
	.st1{fill:#FFD227;stroke:#D59B35;stroke-width:12.1515;stroke-miterlimit:10;}
	.st2{fill:#FFA02A;stroke:#D58021;stroke-width:10.3968;stroke-miterlimit:10;}
	.st3{fill:#231F20;}
	.st4{display:none;fill:#231F20;}
	.st5{display:none;fill:#FFFFFF;stroke:#231F20;stroke-width:8;stroke-miterlimit:10;}
	.st6{display:none;}
	.st7{display:inline;}
	.st8{fill:#D52E35;}
	.st9{fill:none;stroke:#231F20;stroke-width:10.2782;stroke-linecap:round;stroke-miterlimit:10;}
	.st10{fill:#D54963;}
	.st11{fill:#962E49;}
</style>
<path class="st0" d="M171.8,292.3l23.5,83.4c4.7,16.7-10.4,32.2-27.2,28l-84-21.3c-16.8-4.3-22.7-25.1-10.6-37.6l60.5-62.1
	C146,270.3,167.1,275.6,171.8,292.3z"/>
<path class="st0" d="M429.4,292.3l-23.5,83.4c-4.7,16.7,10.4,32.2,27.2,28l84-21.3c16.8-4.3,22.7-25.1,10.6-37.6l-60.5-62.1
	C455.2,270.3,434.1,275.6,429.4,292.3z"/>
<ellipse class="st1" cx="300" cy="326.1" rx="164.2" ry="166.4"/>
<path class="st2" d="M312.6,413.2l30.2-47.3c1.4-2.5-0.4-5.6-3.2-5.6h-79c-2.9,0-4.7,3.1-3.2,5.6l30.2,47.3
	C293,425.1,307,425.1,312.6,413.2z"/>
<ellipse class="st3" cx="259.2" cy="295.9" rx="13.8" ry="36.1"/>
<ellipse class="st4" cx="341.8" cy="295.9" rx="13.8" ry="36.1"/>
<path class="st5" d="M271,329.7l-79.2-15.3c-0.3-0.1-0.6-0.4-0.6-0.7v-43.4c0-0.5,0.6-0.9,1.1-0.6l79.2,46.3
	c0.2,0.1,0.3,0.4,0.3,0.6V329C271.8,329.5,271.4,329.8,271,329.7z"/>
<path class="st5" d="M330.1,329.7l79.2-15.3c0.3-0.1,0.6-0.4,0.6-0.7v-43.4c0-0.5-0.6-0.9-1.1-0.6L329.6,316
	c-0.2,0.1-0.3,0.4-0.3,0.6V329C329.2,329.5,329.6,329.8,330.1,329.7z"/>
<g class="st6">
	<g class="st7">
		<path class="st8" d="M361.3,181.1c2.1,2.4,7.9,9.7,5.2,13.2c-1.5,1.9-5.8,3-8,3.8c-1.7,0.6-3.3,1.2-5,1.7
			c-0.6,0.2-1.1,0.3-1.7,0.5c-1.6,0.4-1.8,0.5-0.8,0.2c-8-5.4-15.5,7.6-7.6,13c5.4,3.6,11.8,1.7,17.4-0.3c6.1-2.1,13.3-4.5,17.5-9.6
			c8.5-10.4,0.8-24.4-6.5-33C365.6,163.2,355,173.8,361.3,181.1L361.3,181.1z"/>
	</g>
</g>
<g class="st6">
	<g class="st7">
		<path class="st8" d="M383.2,166.8c2.3,10,6.9,23,17.3,27c10.8,4.1,23-0.5,31.6-7.3c3.2-2.6,2.6-7.9,0-10.6
			c-3.1-3.2-7.5-2.5-10.6,0c-3.7,3-12.1,6.6-16.6,3.4c-4.3-3-6.1-11.8-7.2-16.5C395.5,153.4,381,157.4,383.2,166.8L383.2,166.8z"/>
	</g>
</g>
<g class="st6">
	<g class="st7">
		<path class="st8" d="M357.3,238c6-2.5,13.6-5.8,20.2-5.6c5.7,0.1,8.4,9.7,9.9,14.3c3,9.1,17.5,5.2,14.5-4c-3-9-7.8-21.3-17.8-24.4
			c-9.6-3-21.9,1.6-30.8,5.3c-3.7,1.5-6.4,5-5.2,9.2C349.1,236.3,353.5,239.6,357.3,238L357.3,238z"/>
	</g>
</g>
<g class="st6">
	<g class="st7">
		<path class="st8" d="M437.2,196.6c-9.7,1.5-22.3,4.1-26.9,13.9c-4.9,10.5,0.8,21.7,4.5,31.6c3.4,9,17.9,5.1,14.5-4
			c-1.3-3.6-2.7-7.1-4-10.7c-1-2.7-2.9-6.9-1.7-9.8c2-4.9,13-5.8,17.6-6.5c4-0.6,6.2-5.7,5.2-9.2C445.3,197.6,441.3,196,437.2,196.6
			L437.2,196.6z"/>
	</g>
</g>
<path class="st9" d="M321.2,308.4c0,0,22.3-34.2,44.7,1.9"/>
<g>
	<path class="st10" d="M490.9,147.6c8.1-9.6,21.9-13.9,34-10.7c12.1,3.2,22.1,13.4,25.1,25.6s-0.8,25.8-9.6,34.7
		c-7.5,7.7-17.9,11.8-27.9,15.7c-15.1,5.9-36,9.1-51.1,15c-8-19.3-16-38.7-24-58c-3.4-8.3-6.9-16.7-7.7-25.7
		c-0.8-8.9,1.4-18.6,7.9-24.8c8.5-8.1,22.6-8.1,32.6-2.2C480.3,123.3,487.6,136.4,490.9,147.6z"/>
	<g>
		<path class="st11" d="M496.2,152.9c9-10.2,24.1-12.7,35.4-4.8c11.4,8,14.9,23,9.2,35.5c-6.3,13.8-22.5,19.7-36,24.1
			c-15,4.9-30.6,7.4-45.4,13c3.1,1.7,6.2,3.5,9.2,5.2c-6.5-15.7-13-31.4-19.5-47.1c-5.3-12.9-14.1-28.1-11.8-42.6
			c2-12.3,12.8-18.2,24.4-14.6c11.8,3.7,18.5,16.9,21.8,27.9c2.8,9.2,17.2,5.3,14.5-4c-4.6-15.4-14-31.3-29.6-37.4
			c-14.9-5.8-33.1-1.6-41.4,12.7c-9.5,16.3-3.5,34.9,3.2,51c8,19.3,16,38.7,24,58c1.4,3.5,5.1,6.8,9.2,5.2
			c14.2-5.4,29.4-7.9,43.9-12.5c13.8-4.3,29.5-10.2,39.4-21.2c9.9-11,14.1-26.6,10.5-40.9c-3.4-13.8-14.3-25.2-27.6-30
			c-15.3-5.5-33.5-0.3-44.1,11.8C479.2,149.5,489.8,160.2,496.2,152.9z"/>
	</g>
</g>
</svg>
