<?xml version="1.0" encoding="utf-8"?>
<!-- Generator: Adobe Illustrator 23.0.1, SVG Export Plug-In . SVG Version: 6.00 Build 0)  -->
<svg version="1.1" id="Layer_1" xmlns="http://www.w3.org/2000/svg" xmlns:xlink="http://www.w3.org/1999/xlink" x="0px" y="0px"
	 viewBox="0 0 600 600" style="enable-background:new 0 0 600 600;" xml:space="preserve">
<style type="text/css">
	.st0{fill:#FFD227;stroke:#D59B35;stroke-width:10.4102;stroke-miterlimit:10;}
	.st1{fill:#FFD227;stroke:#D59B35;stroke-width:12.1515;stroke-miterlimit:10;}
	.st2{fill:#FFA02A;stroke:#D58021;stroke-width:10.3968;stroke-miterlimit:10;}
	.st3{display:none;fill:#231F20;}
	.st4{fill:#FFFFFF;stroke:#231F20;stroke-width:8;stroke-miterlimit:10;}
	.st5{fill:#D52E35;}
</style>
<path class="st0" d="M171.8,292.3l23.5,83.4c4.7,16.7-10.4,32.2-27.2,28l-84-21.3c-16.8-4.3-22.7-25.1-10.6-37.6l60.5-62.1
	C146,270.3,167.1,275.6,171.8,292.3z"/>
<path class="st0" d="M429.4,292.3l-23.5,83.4c-4.7,16.7,10.4,32.2,27.2,28l84-21.3c16.8-4.3,22.7-25.1,10.6-37.6l-60.5-62.1
	C455.2,270.3,434.1,275.6,429.4,292.3z"/>
<ellipse class="st1" cx="300" cy="326.1" rx="164.2" ry="166.4"/>
<path class="st2" d="M312.6,413.2l30.2-47.3c1.4-2.5-0.4-5.6-3.2-5.6h-79c-2.9,0-4.7,3.1-3.2,5.6l30.2,47.3
	C293,425.1,307,425.1,312.6,413.2z"/>
<ellipse class="st3" cx="259.2" cy="295.9" rx="13.8" ry="36.1"/>
<ellipse class="st3" cx="341.8" cy="295.9" rx="13.8" ry="36.1"/>
<path class="st4" d="M271,329.7l-79.2-15.3c-0.3-0.1-0.6-0.4-0.6-0.7v-43.4c0-0.5,0.6-0.9,1.1-0.6l79.2,46.3
	c0.2,0.1,0.3,0.4,0.3,0.6V329C271.8,329.5,271.4,329.8,271,329.7z"/>
<path class="st4" d="M330.1,329.7l79.2-15.3c0.3-0.1,0.6-0.4,0.6-0.7v-43.4c0-0.5-0.6-0.9-1.1-0.6L329.6,316
	c-0.2,0.1-0.3,0.4-0.3,0.6V329C329.2,329.5,329.6,329.8,330.1,329.7z"/>
<g>
	<g>
		<path class="st5" d="M361.3,181.1c2.1,2.4,7.9,9.7,5.2,13.2c-1.5,1.9-5.8,3-8,3.8c-1.7,0.6-3.3,1.2-5,1.7
			c-0.6,0.2-1.1,0.3-1.7,0.5c-1.6,0.4-1.8,0.5-0.8,0.2c-8-5.4-15.5,7.6-7.6,13c5.4,3.6,11.8,1.7,17.4-0.3c6.1-2.1,13.3-4.5,17.5-9.6
			c8.5-10.4,0.8-24.4-6.5-33C365.6,163.2,355,173.8,361.3,181.1L361.3,181.1z"/>
	</g>
</g>
<g>
	<g>
		<path class="st5" d="M383.2,166.8c2.3,10,6.9,23,17.3,27c10.8,4.1,23-0.5,31.6-7.3c3.2-2.6,2.6-7.9,0-10.6
			c-3.1-3.2-7.5-2.5-10.6,0c-3.7,3-12.1,6.6-16.6,3.4c-4.3-3-6.1-11.8-7.2-16.5C395.5,153.4,381,157.4,383.2,166.8L383.2,166.8z"/>
	</g>
</g>
<g>
	<g>
		<path class="st5" d="M357.3,238c6-2.5,13.6-5.8,20.2-5.6c5.7,0.1,8.4,9.7,9.9,14.3c3,9.1,17.5,5.2,14.5-4c-3-9-7.8-21.3-17.8-24.4
			c-9.6-3-21.9,1.6-30.8,5.3c-3.7,1.5-6.4,5-5.2,9.2C349.1,236.3,353.5,239.6,357.3,238L357.3,238z"/>
	</g>
</g>
<g>
	<g>
		<path class="st5" d="M437.2,196.6c-9.7,1.5-22.3,4.1-26.9,13.9c-4.9,10.5,0.8,21.7,4.5,31.6c3.4,9,17.9,5.1,14.5-4
			c-1.3-3.6-2.7-7.1-4-10.7c-1-2.7-2.9-6.9-1.7-9.8c2-4.9,13-5.8,17.6-6.5c4-0.6,6.2-5.7,5.2-9.2C445.3,197.6,441.3,196,437.2,196.6
			L437.2,196.6z"/>
	</g>
</g>
</svg>
