<?xml version="1.0" encoding="utf-8"?>
<!-- Generator: Adobe Illustrator 23.0.1, SVG Export Plug-In . SVG Version: 6.00 Build 0)  -->
<svg version="1.1" id="Layer_1" xmlns="http://www.w3.org/2000/svg" xmlns:xlink="http://www.w3.org/1999/xlink" x="0px" y="0px"
	 viewBox="0 0 600 600" style="enable-background:new 0 0 600 600;" xml:space="preserve">
<style type="text/css">
	.st0{fill:#FFD227;stroke:#D59B35;stroke-width:10.4102;stroke-miterlimit:10;}
	.st1{fill:#FFD227;stroke:#D59B35;stroke-width:12.1515;stroke-miterlimit:10;}
	.st2{fill:#FFA02A;stroke:#D58021;stroke-width:10.3968;stroke-miterlimit:10;}
	.st3{fill:#231F20;}
</style>
<path class="st0" d="M171.8,292.3l23.5,83.4c4.7,16.7-10.4,32.2-27.2,28l-84-21.3c-16.8-4.3-22.7-25.1-10.6-37.6l60.5-62.1
	C146,270.3,167.1,275.6,171.8,292.3z"/>
<path class="st0" d="M429.4,292.3l-23.5,83.4c-4.7,16.7,10.4,32.2,27.2,28l84-21.3c16.8-4.3,22.7-25.1,10.6-37.6l-60.5-62.1
	C455.2,270.3,434.1,275.6,429.4,292.3z"/>
<ellipse class="st1" cx="300" cy="326.1" rx="164.2" ry="166.4"/>
<path class="st2" d="M312.6,413.2l30.2-47.3c1.4-2.5-0.4-5.6-3.2-5.6h-79c-2.9,0-4.7,3.1-3.2,5.6l30.2,47.3
	C293,425.1,307,425.1,312.6,413.2z"/>
<ellipse class="st3" cx="259.2" cy="295.9" rx="13.8" ry="36.1"/>
<ellipse class="st3" cx="341.8" cy="295.9" rx="13.8" ry="36.1"/>
</svg>
