<svg xmlns="http://www.w3.org/2000/svg" xmlns:xlink="http://www.w3.org/1999/xlink" version="1.1" x="0px" y="0px" viewBox="0 0 100 125" style="enable-background:new 0 0 100 100;" xml:space="preserve"><path d="M46.8105469,18.8369141H28.984375c-2.1347656,0-3.8710938,1.7363281-3.8710938,3.8710938  c0,2.1337891,1.7363281,3.8701172,3.8710938,3.8701172h7.5800781c1.5317383,0,2.777832,1.2460938,2.777832,2.7783203v0.4697266  c0,0.5527344,0.4477539,1,1,1s1-0.4472656,1-1v-0.4697266c0-2.6347656-2.1435547-4.7783203-4.777832-4.7783203H28.984375  c-1.0317383,0-1.8710938-0.8388672-1.8710938-1.8701172s0.8393555-1.8710938,1.8710938-1.8710938h17.8261719  c2.1757812,0,3.9458008-1.7695312,3.9458008-3.9453125s-1.7700195-3.9462891-3.9458008-3.9462891H37.269043  c-1.0727539,0-1.9458008-0.8730469-1.9458008-1.9453125c0-0.5527344-0.4477539-1-1-1s-1,0.4472656-1,1  c0,2.1757812,1.7700195,3.9453125,3.9458008,3.9453125h9.5415039c1.0727539,0,1.9458008,0.8730469,1.9458008,1.9462891  C48.7563477,17.9638672,47.8833008,18.8369141,46.8105469,18.8369141z"/><path d="M63.1782227,22.9863281h-10.421875c-3.4155273,0-6.1943359,2.7783203-6.1943359,6.1943359v0.6455078  c0,0.5527344,0.4477539,1,1,1s1-0.4472656,1-1v-0.6455078c0-2.3125,1.8813477-4.1943359,4.1943359-4.1943359h10.421875  c2.7275391,0,4.9467773-2.2197266,4.9467773-4.9472656s-2.2192383-4.9472656-4.9467773-4.9472656c-0.5522461,0-1,0.4472656-1,1  s0.4477539,1,1,1c1.625,0,2.9467773,1.3222656,2.9467773,2.9472656S64.8032227,22.9863281,63.1782227,22.9863281z"/><path d="M80.2026367,44.2578125H77.847168c0.0681763-1.1082764,0.1049805-2.2266235,0.1049805-3.3544922v-4.9931641  c0-0.5527344-0.4477539-1-1-1h-66c-0.5522461,0-1,0.4472656-1,1v4.9931641c0,17.024353,7.8860474,32.0206909,20.0167236,38.8466797  H10.9521484c-0.5522461,0-1,0.4472656-1,1v1.4423828C9.9521484,86.4970703,13.4545898,90,17.7597656,90h52.3852539  c4.3046875,0,7.8071289-3.5029297,7.8071289-7.8076172V80.75c0-0.5527344-0.4477539-1-1-1H57.935791  c6.1397705-3.4549561,11.1895752-9.0039062,14.6819458-15.8496094h7.5848999c5.4155273,0,9.8212891-4.40625,9.8212891-9.8212891  S85.6181641,44.2578125,80.2026367,44.2578125z M75.9521484,82.1923828C75.9521484,85.3945312,73.347168,88,70.1450195,88  H17.7597656c-3.2021484,0-5.8076172-2.6054688-5.8076172-5.8076172V81.75h22.5145264c0.0004272,0,0.0008545,0,0.0012817,0  h41.4841919V82.1923828z M53.274353,79.75H34.6304321c-13.3604736-5.2042847-22.6782837-21.1450195-22.6782837-38.8466797  v-3.9931641h64v3.9931641C75.9521484,58.6049805,66.6343384,74.5457153,53.274353,79.75z M80.2026367,61.9003906h-6.6238403  c2.1364136-4.7470093,3.5539551-10.0401001,4.1085205-15.6425781h2.5153198c4.3125,0,7.8212891,3.5087891,7.8212891,7.8212891  S84.5151367,61.9003906,80.2026367,61.9003906z"/><path d="M51.166748,61.7216797h0.9919434c0.3496094,0,0.6738281-0.1826172,0.8549805-0.4814453  s0.1933594-0.6708984,0.0317383-0.9804688l-3.4072266-6.5351562h0.4501953c0.3632812,0,0.6977539-0.1972656,0.8740234-0.5146484  s0.1669922-0.7050781-0.0249023-1.0136719l-6.1362305-9.8671875c-0.3652344-0.5859375-1.3330078-0.5859375-1.6982422,0  l-6.1362305,9.8671875c-0.1918945,0.3085938-0.2011719,0.6962891-0.0249023,1.0136719s0.5107422,0.5146484,0.8740234,0.5146484  h0.4501953l-3.4072266,6.5351562c-0.1616211,0.3095703-0.1494141,0.6816406,0.0317383,0.9804688  s0.5053711,0.4814453,0.8549805,0.4814453h0.9919434l-3.842041,7.5742188  c-0.1572266,0.3095703-0.1420898,0.6796875,0.0400391,0.9755859c0.1816406,0.2958984,0.5043945,0.4765625,0.8520508,0.4765625  h9.1645508v3.0546875c0,0.5527344,0.4477539,1,1,1s1-0.4472656,1-1v-3.0546875h9.1645508  c0.3476562,0,0.6704102-0.1806641,0.8520508-0.4765625c0.1821289-0.2958984,0.1972656-0.6660156,0.0400391-0.9755859  L51.166748,61.7216797z M43.9521484,44.7509766l4.3369141,6.9736328h-8.6738281L43.9521484,44.7509766z M40.5212402,53.7246094  h6.8618164l3.126709,5.9970703H37.3945312L40.5212402,53.7246094z M35.4160156,68.7480469l3.5639038-7.0263672h9.944458  l3.5639038,7.0263672H35.4160156z"/><text x="0" y="115" fill="#000000" font-size="5px" font-weight="bold" font-family="'Helvetica Neue', Helvetica, Arial-Unicode, Arial, Sans-serif">Created by Made</text><text x="0" y="120" fill="#000000" font-size="5px" font-weight="bold" font-family="'Helvetica Neue', Helvetica, Arial-Unicode, Arial, Sans-serif">from the Noun Project</text></svg>