<svg xmlns="http://www.w3.org/2000/svg" xmlns:xlink="http://www.w3.org/1999/xlink" version="1.1" x="0px" y="0px" viewBox="0 0 100 125" enable-background="new 0 0 100 100" xml:space="preserve"><g><path d="M50,5C25.187,5,5,25.187,5,50s20.187,45,45,45s45-20.187,45-45S74.813,5,50,5z M50,91C27.393,91,9,72.607,9,50   S27.393,9,50,9s41,18.393,41,41S72.607,91,50,91z"/><path d="M59.45,20.82h-18.9c-10.879,0-19.73,8.851-19.73,19.73v18.9c0,10.879,8.851,19.73,19.73,19.73h18.9   c10.879,0,19.73-8.851,19.73-19.73v-18.9C79.18,29.671,70.329,20.82,59.45,20.82z M63.32,36.62v-6.06h6.06v6.06H63.32z    M41.15,43.845c2.021-2.896,5.33-4.625,8.85-4.625s6.829,1.729,8.849,4.622c1.263,1.816,1.931,3.945,1.931,6.158   c0,5.944-4.836,10.78-10.78,10.78S39.22,55.944,39.22,50C39.22,47.788,39.888,45.659,41.15,43.845z M59.45,75.18h-18.9   c-8.673,0-15.73-7.057-15.73-15.73V44.7h11.386C35.56,46.38,35.22,48.168,35.22,50c0,8.149,6.63,14.78,14.78,14.78   S64.78,58.149,64.78,50c0-1.832-0.34-3.62-0.986-5.3H75.18v14.75C75.18,68.124,68.124,75.18,59.45,75.18z"/></g><text x="0" y="115" fill="#000000" font-size="5px" font-weight="bold" font-family="'Helvetica Neue', Helvetica, Arial-Unicode, Arial, Sans-serif">Created by Maxim Kulikov</text><text x="0" y="120" fill="#000000" font-size="5px" font-weight="bold" font-family="'Helvetica Neue', Helvetica, Arial-Unicode, Arial, Sans-serif">from the Noun Project</text></svg>