<svg xmlns:dc="http://purl.org/dc/elements/1.1/" xmlns:cc="http://creativecommons.org/ns#" xmlns:rdf="http://www.w3.org/1999/02/22-rdf-syntax-ns#" xmlns:svg="http://www.w3.org/2000/svg" xmlns="http://www.w3.org/2000/svg" xmlns:sodipodi="http://sodipodi.sourceforge.net/DTD/sodipodi-0.dtd" xmlns:inkscape="http://www.inkscape.org/namespaces/inkscape" version="1.1" x="0px" y="0px" viewBox="0 0 100 125"><g transform="translate(0,-952.36218)"><path style="text-indent:0;text-transform:none;direction:ltr;block-progression:tb;baseline-shift:baseline;color:#000000;enable-background:accumulate;" d="m 81.71875,972.39475 c -0.2526,0.0365 -0.498049,0.12179 -0.71875,0.24992 -4.181429,2.39924 -6.850331,3.63383 -9.5,4.43604 -2.676735,-2.6467 -6.084647,-3.75168 -9.53125,-3.68628 -4.856893,0.0922 -8.803287,2.61021 -11.34375,6.0605 -2.09832,2.8498 -3.278261,6.32041 -3.53125,9.80927 -9.740066,-0.61379 -17.779988,-7.04672 -22.375,-14.90134 -0.371411,-0.62002 -1.100185,-1.00776 -1.822095,-0.96944 -0.721909,0.0383 -1.405511,0.50102 -1.709155,1.15687 -2.179487,4.82949 -2.767225,9.34597 -1.75,13.46432 0.412864,1.67153 1.135251,3.24499 2.03125,4.74844 -0.662464,-0.44216 -1.246352,-0.9989 -1.471188,-1.10796 -0.488508,-0.27447 -1.091335,-0.35207 -1.625014,-0.1758 -0.785657,0.25951 -1.363744,1.05019 -1.372548,1.87731 -0.05699,3.96651 1.951718,8.0443 4.96875,11.4025 0.337953,0.3762 0.728661,0.7054 1.09375,1.0621 -0.365874,-0.1086 -1.04789,-0.2054 -1.3125,-0.3124 -0.71648,-0.292 -1.598723,-0.1195 -2.152396,0.4208 -0.553672,0.5403 -0.747388,1.4178 -0.472604,2.1409 0.685209,1.8292 2.467237,4.3393 5.75,6.8103 2.098368,1.5794 4.884513,2.9452 8.15625,3.7487 -5.038787,2.0929 -11.738466,2.9537 -15.9375,2.7491 -0.78934,-0.032 -1.575032,0.4527 -1.901422,1.1718 -0.326391,0.7192 -0.173431,1.6291 0.370172,2.2021 3.91872,4.1263 12.277885,7.6036 22.4375,7.6225 20.324489,0.038 38.963533,-16.6903 38.90625,-40.95526 0.572989,-0.33121 1.079269,-0.50865 2.40625,-1.68695 2.812907,-2.95387 4.766116,-5.47624 6.4375,-8.37224 0.271794,-0.56133 0.275065,-1.20667 0.15625,-1.56193 -0.356827,-1.15219 -1.902062,-1.74379 -2.9375,-1.12463 -0.373594,0.21667 -0.660277,0.26084 -1.625,0.59355 0.787436,-1.15065 1.609405,-2.38736 2.4375,-3.96744 0.339731,-0.64916 0.283017,-1.48667 -0.141131,-2.08414 -0.424148,-0.59747 -1.19625,-0.92745 -1.921369,-0.82116 z m -19.6875,4.99836 c 3.04998,-0.0579 5.396788,0.69316 7.40625,3.21769 0.470925,0.60921 1.314827,0.90319 2.0625,0.71851 1.491037,-0.38347 2.960566,-0.95714 4.5,-1.62446 -0.1328,0.14804 -0.315088,0.40219 -0.4375,0.53107 -0.551925,0.63564 -1.261567,1.17644 -1.90625,1.65561 -0.827955,0.87931 -0.827419,2.13572 -0.28125,2.68656 0.638435,0.60348 1.195713,0.73687 1.96875,0.78104 1.205793,-0.0429 2.607683,-0.79104 3.65625,-1.12447 -0.840744,1.0092 -1.643106,1.87704 -2.34375,2.49917 -1.581933,1.40468 -2.53125,1.84314 -2.53125,1.84314 -0.683932,0.33247 -1.142069,1.08304 -1.125,1.8431 0.601881,22.81183 -16.573358,37.99073 -35,37.95623 -5.773252,-0.011 -10.8088,-1.5048 -14.53125,-3.2489 5.862314,-0.5685 12.521172,-2.2552 16.875,-6.2791 0.588435,-0.5439 0.79689,-1.4603 0.501579,-2.205 -0.295311,-0.7448 -1.075214,-1.2696 -1.876579,-1.2627 -5.141631,0.1042 -8.989244,-1.6553 -11.6875,-3.6863 -0.40946,-0.3082 -0.611853,-0.6124 -0.96875,-0.9372 2.67449,0.3591 5.342142,0.6141 7.75,0.6246 1.047321,0.049 2.045056,-0.8586 2.094149,-1.9056 0.04909,-1.047 -0.859308,-2.0442 -1.906649,-2.0931 -3.407044,-0.4243 -6.81976,-2.5361 -9.3125,-5.3107 -1.255082,-1.3971 -2.229777,-2.94584 -2.90625,-4.4673 1.758481,0.83838 3.751632,1.60227 5.8125,1.74943 0.830676,0.0633 1.673943,-0.45211 1.996306,-1.22004 0.322363,-0.76793 0.09952,-1.73053 -0.527556,-2.27881 -3.251865,-2.7863 -5.228077,-5.65314 -6,-8.77836 -0.538604,-2.1806 -0.273755,-4.67128 0.4375,-7.34133 5.736297,7.74318 14.498654,13.82711 25.28125,13.65175 1.068633,-0.0156 2.018743,-1.02563 1.96875,-2.09286 -0.151699,-3.24981 0.89673,-6.82131 2.84375,-9.46563 1.94702,-2.64432 4.64649,-4.36882 8.1875,-4.43604 z" fill="#000000" fill-opacity="1" stroke="none" marker="none" visibility="visible" display="inline" overflow="visible"/><path style="text-indent:0;text-transform:none;direction:ltr;block-progression:tb;baseline-shift:baseline;color:#000000;enable-background:accumulate;" d="m 7.8125,958.375 c -0.9831677,0.0927 -1.8167582,1.01248 -1.8125,2 l 0,84 c 1.046e-4,1.0472 0.952831,1.9999 2,2 l 84,0 c 1.047169,-10e-5 1.999895,-0.9528 2,-2 l 0,-33 c 0.01494,-1.0566 -0.943272,-2.0285 -2,-2.0285 -1.056728,0 -2.01494,0.9719 -2,2.0285 l 0,31 -80,0 0,-80 80,0 0,41 c -0.01494,1.0566 0.943272,2.0285 2,2.0285 1.056728,0 2.01494,-0.9719 2,-2.0285 l 0,-43 c -1.05e-4,-1.04717 -0.952831,-1.9999 -2,-2 -28.0587,0 -56.141973,0 -84.1875,0 z" fill="#000000" fill-opacity="1" stroke="none" marker="none" visibility="visible" display="inline" overflow="visible"/></g><text x="0" y="115" fill="#000000" font-size="5px" font-weight="bold" font-family="'Helvetica Neue', Helvetica, Arial-Unicode, Arial, Sans-serif">Created by rivda</text><text x="0" y="120" fill="#000000" font-size="5px" font-weight="bold" font-family="'Helvetica Neue', Helvetica, Arial-Unicode, Arial, Sans-serif">from the Noun Project</text></svg>